<svg width="106" height="121" viewBox="0 0 106 121" fill="none" xmlns="http://www.w3.org/2000/svg">
<g filter="url(#filter0_d_1_3)">
<path d="M42.6985 9.52799L38.7305 13.496L37.0665 11.704L41.0345 7.864L42.6985 9.52799ZM56.1385 7.864C56.1385 8.12 56.1385 8.37599 56.1385 8.632L55.8825 9.52799C55.1145 13.7947 54.8585 16.7387 55.1145 18.36C55.4558 20.3227 55.3705 22.7547 54.8585 25.656C54.3465 26.7653 53.7918 28.3867 53.1945 30.52C52.5972 34.4453 52.3838 36.9627 52.5545 38.072C52.8105 39.1813 52.8105 40.2907 52.5545 41.4H48.8425C50.0372 39.096 50.4638 35.4267 50.1225 30.392C50.2078 30.136 50.2932 29.9653 50.3785 29.88L50.5065 29.624C50.5065 29.4533 50.5492 29.3253 50.6345 29.24C52.0852 24.9733 52.7252 22.072 52.5545 20.536C52.2132 17.3787 52.0852 15.4587 52.1705 14.776C52.1705 14.008 52.5118 12.0453 53.1945 8.88799C53.2798 8.37599 53.3225 8.03466 53.3225 7.864C53.3225 4.792 52.9385 3.256 52.1705 3.256C52.1705 3.256 52.1278 3.29866 52.0425 3.384L51.6585 3.768C51.2318 4.19466 50.5918 4.536 49.7385 4.79199C48.8852 4.96266 48.2878 5.176 47.9465 5.432C47.6905 5.60266 45.8132 7.01066 42.3145 9.656L41.1625 8.24799C42.0158 7.13866 43.5518 5.64533 45.7705 3.768C49.1838 1.54933 51.4878 0.439995 52.6825 0.439995C53.0238 0.439995 53.5785 0.695994 54.3465 1.20799C55.5412 3.768 56.1385 5.98666 56.1385 7.864ZM38.8585 12.984C36.6398 15.1173 34.4212 17.2933 32.2025 19.512C29.3012 22.328 27.3385 24.5893 26.3145 26.296C26.1438 26.6373 26.3145 27.4907 26.8265 28.856L26.0585 31.416C24.0105 29.368 22.9865 27.7893 22.9865 26.68C22.9865 26.424 23.6265 25.4 24.9065 23.608C26.1865 21.7307 27.2532 20.3653 28.1065 19.512C28.2772 19.4267 28.4478 19.384 28.6185 19.384L28.8745 19.256C31.9465 16.3547 34.8478 13.7947 37.5785 11.576L38.8585 12.984ZM27.4665 34.104H25.0345V31.416H27.4665V34.104ZM54.0905 45.752C54.0905 46.008 53.7492 47.1173 53.0665 49.08C52.4692 50.9573 52.1278 52.28 52.0425 53.048C51.7865 55.9493 51.1465 59.7467 50.1225 64.44C49.7812 65.0373 49.3972 66.104 48.9705 67.64C48.5438 69.176 48.3305 70.968 48.3305 73.016C48.4158 73.1867 49.0558 73.3147 50.2505 73.4C50.8478 73.4853 51.5732 73.7413 52.4265 74.168C51.9145 75.7893 50.7198 76.6853 48.8425 76.856H48.3305C47.3918 81.0373 46.9225 82.7867 46.9225 82.104C47.0078 84.152 46.3678 85.9867 45.0025 87.608C44.6612 88.9733 44.3198 90.3813 43.9785 91.832C43.3812 93.9653 43.1252 95.3307 43.2105 95.928C43.3812 97.3787 43.3812 98.3173 43.2105 98.744C42.9545 99.4267 42.4425 101.347 41.6745 104.504C41.3332 105.955 40.8212 106.936 40.1385 107.448C40.1385 108.899 40.3092 110.563 40.6505 112.44L40.9065 112.952C41.0772 113.208 41.2905 113.805 41.5465 114.744C41.1198 114.744 40.2665 115.213 38.9865 116.152C37.6212 110.605 36.9385 107.619 36.9385 107.192C36.9385 106.765 37.0665 106.339 37.3225 105.912C37.5785 105.571 37.7492 105.357 37.8345 105.272C37.8345 103.992 38.3038 102.157 39.2425 99.768L39.4985 99.384C39.4985 99.2987 39.4132 98.744 39.2425 97.72C39.0718 97.1227 39.1998 96.312 39.6265 95.288C40.1385 94.264 40.3945 93.5387 40.3945 93.112V92.216C40.3945 91.448 40.8212 90.424 41.6745 89.144C41.7598 89.0587 41.7172 88.888 41.5465 88.632C42.5705 86.2427 43.4665 83.8533 44.2345 81.464C44.3198 80.2693 44.4052 78.4773 44.4905 76.088C42.1865 74.8933 40.3092 74.296 38.8585 74.296C38.6025 74.296 38.4745 74.296 38.4745 74.296C37.2798 74.6373 36.5972 74.5093 36.4265 73.912C31.0505 74.0827 23.5412 73.9973 13.8985 73.656L13.6425 73.912C13.7278 74.424 13.3438 75.6613 12.4905 77.624C11.6372 79.5013 10.7838 82.9147 9.9305 87.864C9.84517 88.2053 9.58917 89.016 9.1625 90.296C8.73583 91.576 8.5225 92.344 8.5225 92.6C8.5225 92.6853 8.56517 92.9413 8.6505 93.368L8.7785 94.008C8.7785 94.008 8.7785 94.0507 8.7785 94.136C8.86383 94.3067 8.9065 94.3067 8.9065 94.136H8.7785C8.69317 94.136 8.60783 94.0933 8.5225 94.008H8.7785H10.4425C9.33317 97.2507 8.1385 98.872 6.8585 98.872C6.17583 98.872 5.49317 98.616 4.8105 98.104C4.21317 97.5067 3.9145 96.8667 3.9145 96.184C3.9145 95.8427 3.99983 95.3733 4.1705 94.776L4.6825 92.216C5.27983 89.656 5.66383 87.6933 5.8345 86.328C6.00517 84.6213 6.6025 82.4453 7.6265 79.8C8.82117 76.6427 9.5465 74.552 9.8025 73.528C8.7785 73.1867 7.83983 73.016 6.9865 73.016C6.90117 73.016 6.81583 73.0587 6.7305 73.144C6.2185 73.5707 6.17583 73.656 6.6025 73.4H6.4745C6.38917 73.144 6.3465 72.9733 6.3465 72.888L6.4745 73.016L10.8265 77.368L5.0665 74.424C4.0425 73.912 3.23183 72.632 2.6345 70.584C3.82917 70.584 5.36517 70.584 7.2425 70.584C8.86383 70.584 9.75983 70.584 9.9305 70.584H10.1865C10.6132 69.816 11.2105 68.664 11.9785 67.128C12.2345 66.7867 12.5758 66.5307 13.0025 66.36C13.1732 65.5067 13.3012 64.6533 13.3865 63.8C13.5572 62.9467 14.0692 62.136 14.9225 61.368C15.8612 60.5147 17.0558 57.6987 18.5065 52.92C18.5918 52.7493 18.7198 52.5787 18.8905 52.408L19.1465 52.024C19.6585 51.5973 19.9572 50.7867 20.0425 49.592C19.2745 47.8 19.1892 46.392 19.7865 45.368L20.0425 44.984C20.1278 44.8133 20.2558 43.7467 20.4265 41.784C20.5972 41.528 20.7678 41.272 20.9385 41.016C20.5118 39.6507 20.3412 38.584 20.4265 37.816C20.5118 36.024 20.6825 33.336 20.9385 29.752H21.5785C21.6638 29.4107 22.2185 29.24 23.2425 29.24C23.8398 29.24 24.2665 29.5387 24.5225 30.136V30.264C24.3518 30.264 24.2665 30.2213 24.2665 30.136C24.2665 30.4773 24.1812 30.648 24.0105 30.648H25.9305C25.9305 30.7333 26.4425 31.2453 27.4665 32.184C26.9545 32.5253 26.1012 33.08 24.9065 33.848C24.9065 35.64 24.7785 38.3707 24.5225 42.04C24.0105 45.2827 23.1572 49.6773 21.9625 55.224C21.6212 56.504 21.2372 57.8267 20.8105 59.192C20.4692 60.472 19.7012 61.496 18.5065 62.264C18.5065 63.032 18.4638 63.8 18.3785 64.568C18.2932 64.9093 17.9092 65.464 17.2265 66.232C17.0558 67 16.5438 68.2373 15.6905 69.944L15.3065 70.456C16.0745 70.712 18.1652 70.84 21.5785 70.84C33.4398 70.84 39.9252 70.8827 41.0345 70.968C41.2052 70.968 42.2718 71.352 44.2345 72.12C45.1732 69.3893 46.1972 65.3787 47.3065 60.088C47.3065 58.6373 47.4345 56.4613 47.6905 53.56C48.3732 50.744 49.6958 45.0693 51.6585 36.536C51.6585 39.096 51.5732 40.4187 51.4025 40.504L53.1945 40.248C53.6212 41.3573 53.7065 42.3813 53.4505 43.32C53.8772 44.1733 54.0905 44.984 54.0905 45.752ZM103.973 68.92C103.973 69.8587 102.778 72.2053 100.389 75.96C98.0845 79.6293 96.5912 81.5493 95.9085 81.72C95.2258 81.8053 94.2872 82.0187 93.0925 82.36C90.1058 83.64 88.4418 84.28 88.1005 84.28C85.6258 84.28 84.0045 84.3227 83.2365 84.408C79.5672 85.0053 78.1165 85.304 78.8845 85.304C78.5432 85.304 77.2632 85.56 75.0445 86.072C74.8738 86.4987 74.4898 86.712 73.8925 86.712C73.8072 86.712 70.6925 85.816 64.5485 84.024C62.1592 82.5733 60.9645 80.9947 60.9645 79.288C60.9645 79.1173 61.0925 78.5627 61.3485 77.624C61.4338 77.1973 60.7938 75.2347 59.4285 71.736C62.1592 74.7227 63.6098 76.5573 63.7805 77.24C64.2072 78.3493 64.4632 79.032 64.5485 79.288C64.8898 79.8 65.4872 80.312 66.3405 80.824C68.2178 81.848 70.4365 82.36 72.9965 82.36C73.2525 82.2747 73.9778 82.1467 75.1725 81.976L79.6525 81.208C84.0898 80.5253 86.4365 80.184 86.6925 80.184C87.1192 80.184 87.5032 80.2693 87.8445 80.44C89.0392 80.44 90.8312 79.8427 93.2205 78.648C93.9885 78.2213 95.0552 77.1547 96.4205 75.448C97.7858 73.656 98.5112 72.3333 98.5965 71.48C98.6818 71.0533 98.9378 70.4987 99.3645 69.816C99.8765 69.1333 100.133 68.408 100.133 67.64C100.133 66.36 99.7058 63.7573 98.8525 59.832C98.4258 58.04 98.4258 56.0347 98.8525 53.816C99.1085 52.6213 99.1512 51.768 98.9805 51.256C98.6392 50.0613 96.1645 48.568 91.5565 46.776C89.5938 45.496 86.5218 43.7467 82.3405 41.528C79.9512 40.3333 77.5618 39.736 75.1725 39.736C75.0872 39.736 74.4045 39.8213 73.1245 39.992C71.2472 45.7093 70.0098 49.8907 69.4125 52.536C67.8765 58.7653 67.3645 63.2453 67.8765 65.976C68.2178 67.6827 68.2178 72.7173 67.8765 81.08C66.3405 78.264 65.5298 76.216 65.4445 74.936C65.4445 74.2533 65.4445 73.3573 65.4445 72.248C64.9325 68.152 64.6765 65.848 64.6765 65.336C64.6765 64.9093 64.7618 64.312 64.9325 63.544C65.1885 62.6907 65.3165 62.136 65.3165 61.88C65.4018 59.7467 65.4872 57.5707 65.5725 55.352C65.7432 53.1333 66.2125 51.0853 66.9805 49.208C67.2365 48.5253 67.5778 47.5013 68.0045 46.136C68.5165 44.1733 69.2845 41.0587 70.3085 36.792C71.3325 36.024 72.8685 35.64 74.9165 35.64C77.7325 35.64 80.6338 36.2373 83.6205 37.432C84.9005 38.3707 86.8205 39.6933 89.3805 41.4C89.5512 41.4853 91.1298 42.1253 94.1165 43.32C95.2258 43.832 96.9752 44.856 99.3645 46.392C100.218 46.904 101.029 47.8427 101.797 49.208C102.223 49.8907 102.437 50.6587 102.437 51.512C102.437 52.024 102.309 52.92 102.053 54.2C101.797 55.48 101.711 56.4187 101.797 57.016C102.053 58.8933 102.522 61.624 103.205 65.208C103.717 67.0853 103.973 68.3227 103.973 68.92Z" fill="#D6D6D6"/>
</g>
<defs>
<filter id="filter0_d_1_3" x="0.634499" y="0.439995" width="105.338" height="119.712" filterUnits="userSpaceOnUse" color-interpolation-filters="sRGB">
<feFlood flood-opacity="0" result="BackgroundImageFix"/>
<feColorMatrix in="SourceAlpha" type="matrix" values="0 0 0 0 0 0 0 0 0 0 0 0 0 0 0 0 0 0 127 0" result="hardAlpha"/>
<feOffset dy="2"/>
<feGaussianBlur stdDeviation="1"/>
<feComposite in2="hardAlpha" operator="out"/>
<feColorMatrix type="matrix" values="0 0 0 0 0 0 0 0 0 0 0 0 0 0 0 0 0 0 0.15 0"/>
<feBlend mode="normal" in2="BackgroundImageFix" result="effect1_dropShadow_1_3"/>
<feBlend mode="normal" in="SourceGraphic" in2="effect1_dropShadow_1_3" result="shape"/>
</filter>
</defs>
</svg>
